P1
# Created by GIMP version 2.10.32 PNM plug-in
10 10
0000000000011110011001001000000100100110011110000000000000000110000000
110100110001100011000000000000